<?xml version="1.0" encoding="utf-8"?>
<!-- Generator: Adobe Illustrator 27.7.0, SVG Export Plug-In . SVG Version: 6.00 Build 0)  -->
<svg version="1.1" id="Layer_1" xmlns="http://www.w3.org/2000/svg" xmlns:xlink="http://www.w3.org/1999/xlink" x="0px" y="0px"
	 viewBox="0 0 612 792" style="enable-background:new 0 0 612 792;" xml:space="preserve">
<style type="text/css">
	.st0{stroke:#000000;stroke-miterlimit:10;}
</style>
<g>
	<path class="st0" d="M170.41,269.58l-8.4-16.17l-2.64,13.86c-0.16,0.84,0.16,1.41,0.96,1.71l0.51,0.18l-0.03,0.3h-4.35l0.06-0.3
		l0.66-0.24c0.4-0.16,0.71-0.36,0.94-0.61c0.23-0.25,0.38-0.6,0.46-1.04l2.88-15.21l-0.36-0.75c-0.26-0.54-0.66-0.96-1.2-1.26
		l-0.09-0.09l0.06-0.3h4.62l7.74,14.58l2.37-12.54c0.14-0.76-0.15-1.28-0.87-1.56l-0.48-0.18l0.06-0.3h4.08l-0.03,0.3l-0.63,0.21
		c-0.38,0.14-0.69,0.33-0.92,0.58c-0.23,0.25-0.39,0.58-0.47,1L172,269.58H170.41z"/>
	<path class="st0" d="M175.27,276.36c-0.72,0-1.31-0.19-1.79-0.57c-0.47-0.38-0.71-0.88-0.71-1.5c0-0.52,0.19-0.96,0.56-1.31
		c0.37-0.35,0.83-0.52,1.36-0.52c0.64,0,1.23,0.24,1.77,0.72c0.42,0.38,0.83,0.61,1.25,0.69c0.41,0.08,0.83-0.04,1.27-0.36
		c0.28-0.2,0.54-0.42,0.8-0.65c0.25-0.23,0.5-0.48,0.76-0.76c0.06-0.06,0.12-0.12,0.18-0.18c-0.3-2.14-0.6-4.2-0.9-6.18
		c-0.3-1.98-0.61-4.03-0.93-6.15c-0.1-0.76-0.2-1.32-0.3-1.68c-0.1-0.36-0.21-0.6-0.31-0.71c-0.11-0.11-0.25-0.17-0.41-0.17
		c-0.2,0-0.43,0.09-0.67,0.27c-0.25,0.18-0.54,0.49-0.85,0.93l-0.39-0.39c1.4-2.18,2.82-3.27,4.26-3.27c0.76,0,1.31,0.25,1.64,0.75
		s0.54,1.3,0.65,2.4c0.2,1.86,0.39,3.64,0.57,5.33c0.18,1.69,0.34,3.48,0.48,5.35c0.7-1.66,1.29-3.32,1.77-4.97s0.95-3.44,1.41-5.35
		c0.34-1.4,0.71-2.35,1.09-2.85c0.39-0.5,0.92-0.75,1.58-0.75c0.44,0,0.83,0.14,1.17,0.42c0.34,0.28,0.51,0.65,0.51,1.11
		c0,0.5-0.1,0.97-0.29,1.4c-0.19,0.43-0.46,0.96-0.79,1.6c-0.32,0.62-0.67,1.27-1.05,1.95c-0.38,0.68-0.83,1.44-1.35,2.28
		c-0.56,0.88-1.16,1.83-1.79,2.83c-0.63,1.01-1.37,2.1-2.21,3.29c-0.46,0.62-0.94,1.27-1.46,1.95c-0.51,0.68-1.15,1.41-1.9,2.19
		c-0.8,0.86-1.62,1.55-2.45,2.07C176.97,276.1,176.13,276.36,175.27,276.36z"/>
	<path class="st0" d="M196.93,269.46l0.06-0.3l0.51-0.21c0.7-0.26,1.12-0.77,1.26-1.53l1.59-8.46c0.22-1.08,0.44-2.28,0.66-3.62
		c0.22-1.33,0.43-2.57,0.63-3.73c0.12-0.7-0.15-1.2-0.81-1.5l-0.36-0.15l0.06-0.3h7.26l-0.06,0.3l-0.66,0.21
		c-0.72,0.26-1.15,0.76-1.29,1.5l-1.77,9.66c-0.16,0.82-0.35,1.81-0.56,2.96s-0.4,2.23-0.58,3.22c-0.12,0.72,0.16,1.21,0.84,1.47
		l0.45,0.18l-0.06,0.3H196.93z M208.51,269.46l0.06-0.3l0.36-0.15c0.68-0.32,0.84-0.78,0.48-1.38l-4.98-8.49l8.4-7.59
		c0.32-0.28,0.47-0.56,0.44-0.84c-0.03-0.28-0.23-0.49-0.58-0.63l-0.27-0.12l0.03-0.3h4.71l-0.06,0.3l-0.33,0.12
		c-0.68,0.24-1.25,0.49-1.7,0.75c-0.45,0.26-0.94,0.62-1.45,1.08l-6.03,5.46l6.21,10.05c0.46,0.76,1.08,1.31,1.86,1.65l0.27,0.09
		l-0.06,0.3H208.51z"/>
	<path class="st0" d="M217.24,269.67l-0.3-0.21l2.28-10.98c0.1-0.52,0.07-0.9-0.09-1.15c-0.16-0.25-0.43-0.46-0.81-0.62l-0.45-0.21
		l0.06-0.3l5.22-1.65l0.3,0.27l-0.81,4.95c0.42-0.96,0.91-1.83,1.47-2.61c0.56-0.78,1.15-1.41,1.77-1.88
		c0.62-0.47,1.24-0.71,1.86-0.71c0.62,0,1.12,0.17,1.5,0.5c0.38,0.33,0.57,0.76,0.57,1.3c0,0.56-0.17,1.02-0.5,1.38
		c-0.33,0.36-0.78,0.54-1.33,0.54c-0.44,0-0.86-0.11-1.26-0.34c-0.4-0.23-0.79-0.56-1.17-1c-0.7,0.52-1.3,1.2-1.8,2.02
		c-0.5,0.83-0.96,1.74-1.38,2.71l-0.3,1.38c-0.22,1.06-0.43,2.12-0.63,3.18c-0.2,1.06-0.4,2.13-0.6,3.21L217.24,269.67z"/>
	<path class="st0" d="M234.4,269.91c-1.5,0-2.72-0.49-3.66-1.47c-0.94-0.98-1.41-2.37-1.41-4.17c0-1.28,0.22-2.5,0.66-3.66
		c0.44-1.16,1.05-2.19,1.85-3.1c0.79-0.91,1.7-1.62,2.74-2.15c1.04-0.52,2.17-0.78,3.39-0.78c1.26,0,2.22,0.28,2.9,0.85
		c0.67,0.57,1,1.33,1,2.27c0,0.78-0.36,1.55-1.09,2.31c-0.73,0.76-1.75,1.45-3.08,2.06c-1.32,0.61-2.87,1.08-4.65,1.4
		c0.02,1.38,0.32,2.39,0.9,3.03c0.58,0.64,1.38,0.96,2.4,0.96c0.86,0,1.65-0.23,2.37-0.71c0.72-0.47,1.33-1.02,1.83-1.67l0.3,0.21
		c-0.4,0.78-0.92,1.52-1.54,2.22c-0.63,0.7-1.35,1.28-2.17,1.73C236.31,269.68,235.4,269.91,234.4,269.91z M237.76,255.39
		c-0.46,0-0.96,0.2-1.48,0.6c-0.53,0.4-1.03,0.95-1.5,1.64c-0.47,0.69-0.86,1.48-1.17,2.37c-0.31,0.89-0.5,1.83-0.56,2.83
		c2.2-0.6,3.77-1.39,4.69-2.37c0.93-0.98,1.4-2.09,1.4-3.33c0-0.6-0.13-1.04-0.39-1.32C238.49,255.53,238.16,255.39,237.76,255.39z"
		/>
	<path class="st0" d="M245.89,269.91c-0.56,0-1.09-0.13-1.59-0.39c-0.5-0.26-0.91-0.69-1.21-1.29c-0.31-0.6-0.47-1.39-0.47-2.37
		c0-1.06,0.21-2.12,0.63-3.19c0.42-1.07,0.98-2.09,1.68-3.06c0.7-0.97,1.48-1.83,2.34-2.58s1.75-1.34,2.67-1.79
		c0.92-0.44,1.79-0.66,2.61-0.66c0.4,0,0.77,0.07,1.12,0.23c0.35,0.15,0.68,0.35,1,0.61l2.43-0.93l0.24,0.15l-2.61,11.49
		c-0.14,0.56-0.21,1.02-0.21,1.38c0,0.42,0.19,0.63,0.57,0.63c0.28,0,0.6-0.13,0.98-0.39c0.37-0.26,0.79-0.61,1.27-1.05l0.24,0.24
		c-0.3,0.48-0.68,0.94-1.12,1.4c-0.45,0.45-0.95,0.83-1.5,1.12c-0.55,0.3-1.14,0.45-1.75,0.45c-0.68,0-1.23-0.21-1.65-0.62
		c-0.42-0.41-0.63-1.04-0.63-1.9c0-0.28,0.01-0.55,0.03-0.81c-0.8,0.9-1.65,1.68-2.54,2.34
		C247.53,269.58,246.69,269.91,245.89,269.91z M246.16,264.51c0,1.06,0.17,1.83,0.52,2.3s0.81,0.7,1.4,0.7
		c0.48,0,0.96-0.15,1.44-0.45c0.48-0.3,1-0.73,1.56-1.29c0.04-0.24,0.09-0.49,0.15-0.75l1.89-8.64c-0.26-0.32-0.57-0.54-0.93-0.66
		c-0.36-0.12-0.68-0.18-0.96-0.18c-0.86,0-1.76,0.51-2.7,1.53c-0.74,0.82-1.32,1.9-1.74,3.24
		C246.37,261.65,246.16,263.05,246.16,264.51z"/>
	<path class="st0" d="M262.27,269.91c-0.62,0-1.14-0.17-1.54-0.5c-0.41-0.33-0.61-0.81-0.61-1.46c0-0.4,0.04-0.83,0.12-1.31
		c0.08-0.47,0.17-0.97,0.27-1.51l2.07-9.48h-2.49l0.09-0.36l1.08-0.12c0.56-0.06,1.05-0.2,1.47-0.42c0.42-0.22,0.82-0.53,1.2-0.93
		l2.88-2.91h0.45l-0.84,4.11h3.27l-0.15,0.63h-3.27l-2.07,9.99c-0.08,0.38-0.14,0.71-0.18,0.98c-0.04,0.27-0.06,0.5-0.06,0.67
		c0,0.2,0.06,0.36,0.18,0.48c0.12,0.12,0.25,0.18,0.39,0.18c0.28,0,0.58-0.11,0.9-0.35c0.32-0.23,0.72-0.57,1.2-1.03l0.36,0.3
		c-0.5,0.74-1.15,1.43-1.95,2.07C264.23,269.59,263.31,269.91,262.27,269.91z"/>
	<path class="st0" d="M271.93,269.91c-0.62,0-1.13-0.16-1.53-0.48c-0.4-0.32-0.6-0.79-0.6-1.41c0-0.36,0.04-0.79,0.12-1.29
		c0.08-0.5,0.17-1,0.27-1.5l1.41-6.75c0.18-0.82-0.11-1.4-0.87-1.74l-0.48-0.24l0.03-0.33l5.64-1.62l0.3,0.27l-2.34,10.86
		c-0.08,0.36-0.14,0.67-0.18,0.91c-0.04,0.25-0.06,0.5-0.06,0.74c0,0.44,0.2,0.66,0.6,0.66c0.3,0,0.6-0.09,0.9-0.28
		c0.3-0.19,0.68-0.5,1.14-0.95l0.27,0.27c-0.5,0.74-1.14,1.41-1.9,2C273.87,269.61,272.97,269.91,271.93,269.91z M274.72,252.9
		c-0.56,0-1.04-0.18-1.45-0.56c-0.41-0.37-0.62-0.86-0.62-1.48c0-0.7,0.24-1.27,0.73-1.73c0.49-0.45,1.04-0.67,1.67-0.67
		c0.6,0,1.09,0.19,1.47,0.57c0.38,0.38,0.57,0.87,0.57,1.47c0,0.68-0.24,1.25-0.72,1.71C275.89,252.67,275.34,252.9,274.72,252.9z"
		/>
	<path class="st0" d="M283.84,269.91c-1.04,0-1.99-0.21-2.85-0.62c-0.86-0.41-1.54-1.03-2.04-1.86c-0.5-0.83-0.75-1.88-0.75-3.17
		c0-1.28,0.21-2.5,0.65-3.66c0.43-1.16,1.04-2.19,1.81-3.1c0.78-0.91,1.69-1.62,2.73-2.15c1.04-0.52,2.17-0.78,3.39-0.78
		c1.06,0,2,0.21,2.83,0.61c0.83,0.41,1.49,1.03,1.98,1.85c0.49,0.82,0.73,1.87,0.73,3.15c0,1.26-0.21,2.48-0.65,3.65
		s-1.03,2.21-1.8,3.12c-0.77,0.91-1.67,1.63-2.7,2.16C286.15,269.64,285.04,269.91,283.84,269.91z M284.2,269.31
		c0.62,0,1.19-0.29,1.69-0.85c0.51-0.57,0.96-1.33,1.34-2.28c0.38-0.95,0.67-2,0.87-3.15c0.2-1.15,0.3-2.29,0.3-3.44
		c0-1.66-0.17-2.81-0.51-3.45c-0.34-0.64-0.78-0.96-1.32-0.96c-0.64,0-1.23,0.28-1.77,0.84c-0.54,0.56-1.01,1.31-1.41,2.25
		c-0.4,0.94-0.71,1.98-0.93,3.12c-0.22,1.14-0.33,2.28-0.33,3.42c0,1.7,0.2,2.88,0.6,3.52C283.13,268.98,283.62,269.31,284.2,269.31
		z"/>
	<path class="st0" d="M293.8,269.67l-0.27-0.21l2.31-11.04c0.18-0.78-0.1-1.34-0.84-1.68l-0.51-0.24l0.03-0.3l5.58-1.65l0.27,0.24
		l-0.69,3.63c1.04-1.18,2.1-2.11,3.18-2.81c1.08-0.69,2.1-1.03,3.06-1.03c0.64,0,1.17,0.19,1.59,0.58c0.42,0.39,0.63,1,0.63,1.81
		c0,0.42-0.04,0.85-0.12,1.31c-0.08,0.45-0.18,0.92-0.3,1.4l-1.59,6.39c-0.08,0.32-0.14,0.58-0.18,0.79
		c-0.04,0.21-0.06,0.4-0.06,0.56c0,0.42,0.17,0.63,0.51,0.63c0.56,0,1.27-0.45,2.13-1.35l0.3,0.3c-0.5,0.74-1.16,1.41-1.98,2.01
		c-0.82,0.6-1.73,0.9-2.73,0.9c-0.66,0-1.17-0.16-1.53-0.47c-0.36-0.31-0.54-0.74-0.54-1.3c0-0.42,0.05-0.85,0.15-1.31
		c0.1-0.45,0.21-0.92,0.33-1.4l1.17-4.68c0.16-0.64,0.29-1.21,0.39-1.71c0.1-0.5,0.15-0.96,0.15-1.38c0-0.36-0.08-0.61-0.24-0.77
		c-0.16-0.15-0.38-0.22-0.66-0.22c-0.48,0-1.05,0.21-1.7,0.63s-1.36,1.08-2.15,1.98l-0.84,3.78c-0.22,1.06-0.43,2.12-0.63,3.18
		c-0.2,1.06-0.4,2.13-0.6,3.21L293.8,269.67z"/>
	<path class="st0" d="M315.03,269.95c-0.68,0-1.24-0.22-1.67-0.65c-0.43-0.43-0.64-0.95-0.64-1.54c0-0.76,0.27-1.4,0.83-1.92
		c0.55-0.52,1.18-0.78,1.9-0.78c0.68,0,1.24,0.22,1.67,0.66s0.65,0.97,0.65,1.59c0,0.74-0.28,1.37-0.83,1.88
		C316.38,269.7,315.75,269.95,315.03,269.95z"/>
</g>
</svg>
